<?xml version="1.0" encoding="UTF-8" standalone="no"?>
<!DOCTYPE svg PUBLIC "-//W3C//DTD SVG 1.1//EN"
        "http://www.w3.org/Graphics/SVG/1.1/DTD/svg11.dtd">
<!-- Generated by graphviz version 2.40.1 (20161225.0304)
 -->
<!-- Title: CBM Pages: 1 -->
<svg width="207pt" height="314pt"
     viewBox="0.00 0.00 207.17 313.73" xmlns="http://www.w3.org/2000/svg" xmlns:xlink="http://www.w3.org/1999/xlink">
    <g id="graph0" class="graph" transform="scale(1 1) rotate(0) translate(4 309.7338)">
        <title>CBM</title>
        <polygon fill="#ffffff" stroke="transparent" points="-4,4 -4,-309.7338 203.1691,-309.7338 203.1691,4 -4,4"/>
        <!-- Closed -->
        <g id="node1" class="node">
            <title>Closed</title>
            <ellipse fill="none" stroke="#000000" cx="118.0667" cy="-287.7338" rx="37.7198" ry="18"/>
            <text text-anchor="middle" x="118.0667" y="-283.5338" font-family="Times,serif" font-size="14.00" fill="#000000">Closed</text>
        </g>
        <!-- Opened -->
        <g id="node2" class="node">
            <title>Opened</title>
            <ellipse fill="none" stroke="#000000" cx="41.0667" cy="-198.9338" rx="41.1335" ry="18"/>
            <text text-anchor="middle" x="41.0667" y="-194.7338" font-family="Times,serif" font-size="14.00" fill="#000000">Opened</text>
        </g>
        <!-- Closed&#45;&gt;Opened -->
        <g id="edge1" class="edge">
            <title>Closed&#45;&gt;Opened</title>
            <path fill="none" stroke="#000000" d="M96.939,-272.4726C89.4011,-266.4784 81.1464,-259.2389 74.5323,-251.7338 67.5025,-243.757 60.952,-234.1529 55.5436,-225.3351"/>
            <polygon fill="#000000" stroke="#000000" points="58.4452,-223.3653 50.3486,-216.5319 52.4167,-226.923 58.4452,-223.3653"/>
            <text text-anchor="middle" x="88.8339" y="-239.1338" font-family="Times,serif" font-size="14.00" fill="#000000">Error</text>
        </g>
        <!-- Exit -->
        <g id="node3" class="node">
            <title>Exit</title>
            <polygon fill="none" stroke="#000000" points="166.9019,-39.5021 127.2315,-39.5021 127.2315,.1683 166.9019,.1683 166.9019,-39.5021"/>
            <polyline fill="none" stroke="#000000" points="139.2315,-39.5021 127.2315,-27.5021 "/>
            <polyline fill="none" stroke="#000000" points="127.2315,-11.8317 139.2315,.1683 "/>
            <polyline fill="none" stroke="#000000" points="154.9019,.1683 166.9019,-11.8317 "/>
            <polyline fill="none" stroke="#000000" points="166.9019,-27.5021 154.9019,-39.5021 "/>
            <text text-anchor="middle" x="147.0667" y="-15.4669" font-family="Times,serif" font-size="14.00" fill="#000000">Exit</text>
        </g>
        <!-- Closed&#45;&gt;Exit -->
        <g id="edge2" class="edge">
            <title>Closed&#45;&gt;Exit</title>
            <path fill="none" stroke="#000000" d="M130.0282,-270.611C138.9638,-256.8102 150.5474,-236.539 156.0667,-216.9338 175.2903,-148.6492 171.1201,-127.0614 158.0667,-57.3338 157.5668,-54.6637 156.9558,-51.9115 156.2804,-49.1676"/>
            <polygon fill="#000000" stroke="#000000" points="159.6339,-48.1612 153.6357,-39.4279 152.8786,-49.9956 159.6339,-48.1612"/>
            <text text-anchor="middle" x="183.6179" y="-150.3338" font-family="Times,serif" font-size="14.00" fill="#000000">Panic</text>
        </g>
        <!-- HalfOpened -->
        <g id="node4" class="node">
            <title>HalfOpened</title>
            <ellipse fill="none" stroke="#000000" cx="94.0667" cy="-110.1338" rx="58.4473" ry="18"/>
            <text text-anchor="middle" x="94.0667" y="-105.9338" font-family="Times,serif" font-size="14.00" fill="#000000">HalfOpened</text>
        </g>
        <!-- Opened&#45;&gt;HalfOpened -->
        <g id="edge6" class="edge">
            <title>Opened&#45;&gt;HalfOpened</title>
            <path fill="none" stroke="#000000" d="M51.5378,-181.3898C59.1103,-168.7022 69.48,-151.3281 78.084,-136.9123"/>
            <polygon fill="#000000" stroke="#000000" points="81.3163,-138.326 83.436,-127.9453 75.3055,-134.7384 81.3163,-138.326"/>
            <text text-anchor="middle" x="82.1733" y="-150.3338" font-family="Times,serif" font-size="14.00" fill="#000000">Try</text>
        </g>
        <!-- HalfOpened&#45;&gt;Closed -->
        <g id="edge5" class="edge">
            <title>HalfOpened&#45;&gt;Closed</title>
            <path fill="none" stroke="#000000" d="M96.5065,-128.1881C100.6977,-159.2029 109.2935,-222.8119 114.2724,-259.6558"/>
            <polygon fill="#000000" stroke="#000000" points="110.8256,-260.286 115.6334,-269.7272 117.7626,-259.3485 110.8256,-260.286"/>
            <text text-anchor="middle" x="130.2245" y="-194.7338" font-family="Times,serif" font-size="14.00" fill="#000000">Success</text>
        </g>
        <!-- HalfOpened&#45;&gt;Opened -->
        <g id="edge3" class="edge">
            <title>HalfOpened&#45;&gt;Opened</title>
            <path fill="none" stroke="#000000" d="M50.4647,-122.3347C39.056,-127.7233 28.0932,-135.3687 21.4131,-146.1338 16.2841,-154.3994 18.1064,-164.2115 22.2531,-173.1212"/>
            <polygon fill="#000000" stroke="#000000" points="19.2761,-174.9683 27.2219,-181.9766 25.3808,-171.5429 19.2761,-174.9683"/>
            <text text-anchor="middle" x="41.8935" y="-150.3338" font-family="Times,serif" font-size="14.00" fill="#000000">Failure</text>
        </g>
        <!-- HalfOpened&#45;&gt;Exit -->
        <g id="edge4" class="edge">
            <title>HalfOpened&#45;&gt;Exit</title>
            <path fill="none" stroke="#000000" d="M104.5378,-92.2605C111.8629,-79.7571 121.8053,-62.7863 130.235,-48.3973"/>
            <polygon fill="#000000" stroke="#000000" points="133.4784,-49.7851 135.5134,-39.3875 127.4385,-46.2466 133.4784,-49.7851"/>
            <text text-anchor="middle" x="138.6179" y="-61.5338" font-family="Times,serif" font-size="14.00" fill="#000000">Panic</text>
        </g>
    </g>
</svg>
